<svg width="117" height="20" viewBox="0 0 117 20" fill="none" xmlns="http://www.w3.org/2000/svg">
<path fill-rule="evenodd" clip-rule="evenodd" d="M32.7957 7.27568C33.5687 6.43873 34.5093 5.96243 35.7799 5.96243H36.3385V8.99936C33.3099 8.99936 32.7957 9.04412 32.7957 10.17V13.9625H29.8555V5.96243H32.7957V7.27568ZM54.9493 5.81094C57.3456 5.81094 59.2126 7.1298 59.2126 9.95934C59.2126 12.7889 57.3456 14.1075 54.9493 14.1075C53.4697 14.1075 52.4917 13.388 51.9653 12.718V13.9593H49.0252V4.16669H51.9653V7.20069C52.4917 6.53071 53.4697 5.81094 54.9493 5.81094ZM54.1116 11.4851C55.3023 11.4851 56.1109 10.9519 56.1109 9.95932C56.1109 8.96677 55.3023 8.43353 54.1116 8.43353C52.7885 8.43353 51.9652 8.96677 51.9652 9.95932C51.9652 10.9519 52.7885 11.4851 54.1116 11.4851ZM65.2989 5.69257C68.151 5.69257 70.4734 7.01085 70.4734 9.95908C70.4734 12.9371 68.151 14.1667 65.2989 14.1667C62.4466 14.1667 60.1241 12.9371 60.1241 9.95908C60.1241 7.01085 62.4466 5.69257 65.2989 5.69257ZM65.299 11.5446C66.4897 11.5446 67.2983 10.9818 67.2983 9.95909C67.2983 8.93666 66.4897 8.37378 65.299 8.37378C63.9757 8.37378 63.1528 8.93666 63.1528 9.95909C63.1528 10.9818 63.9757 11.5446 65.299 11.5446ZM42.568 5.69257C45.42 5.69257 47.7424 7.01085 47.7424 9.95908C47.7424 12.9371 45.42 14.1667 42.568 14.1667C39.7156 14.1667 37.3931 12.9371 37.3931 9.95908C37.3931 7.01085 39.7156 5.69257 42.568 5.69257ZM42.5679 11.5446C43.7586 11.5446 44.5672 10.9818 44.5672 9.95909C44.5672 8.93666 43.7586 8.37378 42.5679 8.37378C41.2446 8.37378 40.4217 8.93666 40.4217 9.95909C40.4217 10.9818 41.2446 11.5446 42.5679 11.5446ZM75.7067 4.18134V5.95916H78.5001V8.62583H75.7067V10.4039C75.7067 11.3518 77.0596 11.1743 78.5001 11.0999V13.9595C77.515 14.1073 76.5008 14.1073 76.3246 14.1073C74.6041 14.1073 72.7667 13.3369 72.7667 10.8481V8.62583H71.1497V5.95916H72.7667V4.18134H75.7067ZM86.894 7.20067V5.95913H89.8342V13.9593H86.894V12.718C86.3678 13.3877 85.3898 14.1075 83.9098 14.1075C81.5136 14.1075 79.6463 12.7889 79.6463 9.95932C79.6463 7.12978 81.5136 5.81091 83.9098 5.81091C85.3898 5.81091 86.3678 6.53069 86.894 7.20067ZM84.7475 11.4851C86.0705 11.4851 86.894 10.9519 86.894 9.95932C86.894 8.96677 86.0705 8.43353 84.7475 8.43353C83.5571 8.43353 82.7482 8.96677 82.7482 9.95932C82.7482 10.9519 83.5571 11.4851 84.7475 11.4851ZM113.973 5.97378H116.913V13.9739H113.973V12.7327C113.446 13.4026 112.468 14.1221 110.988 14.1221C108.592 14.1221 106.725 12.8037 106.725 9.97397C106.725 7.14443 108.592 5.82556 110.988 5.82556C112.468 5.82556 113.446 6.54534 113.973 7.21532V5.97378ZM111.826 11.5001C113.15 11.5001 113.973 10.9665 113.973 9.97397C113.973 8.98154 113.15 8.44818 111.826 8.44818C110.636 8.44818 109.827 8.98154 109.827 9.97397C109.827 10.9665 110.636 11.5001 111.826 11.5001ZM92.9067 10.8924C94.0826 10.8924 94.7589 11.6633 94.7589 12.5076C94.7589 13.3521 94.0826 14.0929 92.9067 14.0929C91.716 14.0929 91.0397 13.3521 91.0397 12.5076C91.0397 11.6633 91.716 10.8924 92.9067 10.8924ZM102.359 9.27775V5.95914H105.299V13.9593H102.359V12.7044C101.854 13.371 100.825 14.1075 99.5217 14.1075C96.9053 14.1075 95.4646 12.7596 95.4646 10.0185V5.95914H98.4049V9.48525C98.4049 10.8779 99.1544 11.174 100.374 11.174C101.609 11.174 102.359 10.6703 102.359 9.27775Z" fill="white"/>
<path fill-rule="evenodd" clip-rule="evenodd" d="M9.9996 7.31348V6H7.05957V14H9.9996V10.2076C9.9996 9.08146 10.5141 9.03717 13.5424 9.03717V6H12.9838C11.7132 6 10.7726 6.47665 9.9996 7.31348Z" fill="white"/>
<path fill-rule="evenodd" clip-rule="evenodd" d="M0.0871582 10.0001C0.0871582 4.48504 4.53763 0 10.0101 0C15.4824 0 19.9327 4.48504 19.9327 10.0001C19.9327 15.5151 15.4824 20 10.0101 20C4.53763 20 0.0871582 15.5151 0.0871582 10.0001ZM2.07172 10.0001C2.07172 14.4103 5.63392 18 10.0101 18C14.3862 18 17.9481 14.4103 17.9481 10.0001C17.9481 5.58983 14.3862 1.99997 10.0101 1.99997C5.63392 1.99997 2.07172 5.58983 2.07172 10.0001Z" fill="white"/>
</svg>
